<svg xmlns="http://www.w3.org/2000/svg" width="480" height="800" viewBox="0 0 480 800">
  <rect width="480" height="800" fill="#f5f7fb"/>
  <text x="16" y="34" font-family="Arial" font-size="28" font-weight="700" fill="#111">Keyence Scanner</text>
  <text x="16" y="56" font-family="Arial" font-size="14" fill="#444">Portrait workflow • 480x800 optimized</text>
  <rect x="370" y="14" width="94" height="52" rx="8" fill="#64748b"/>
  <text x="397" y="45" font-family="Arial" font-size="18" font-weight="700" fill="#fff">Reset</text>
  <rect x="16" y="76" width="216" height="38" rx="8" fill="#fff" stroke="#e2e8f0"/>
  <rect x="240" y="76" width="216" height="38" rx="8" fill="#fff" stroke="#e2e8f0"/>
  <rect x="16" y="120" width="216" height="38" rx="8" fill="#fff" stroke="#e2e8f0"/>
  <rect x="240" y="120" width="216" height="38" rx="8" fill="#fff" stroke="#e2e8f0"/>
  <text x="26" y="100" font-family="Arial" font-size="13" fill="#111">WO: WO-20260317-01</text>
  <text x="250" y="100" font-family="Arial" font-size="13" fill="#111">Kit: GC1DMF2430</text>
  <text x="26" y="144" font-family="Arial" font-size="13" fill="#111">Station: 2</text>
  <text x="250" y="144" font-family="Arial" font-size="13" fill="#111">Tray: T4-000123</text>
  <rect x="16" y="170" width="448" height="610" rx="8" fill="#fff" stroke="#e2e8f0"/>
  <text x="28" y="206" font-family="Arial" font-size="28" font-weight="700" fill="#111">Step 1 — Select Work Order</text>
<rect x="28" y="236" width="424" height="52" rx="8" fill="#1d4ed8"/><text x="42" y="269" font-family="Arial" font-size="18" font-weight="700" fill="#fff">WO-20260317-01</text>
<rect x="28" y="298" width="424" height="52" rx="8" fill="#1d4ed8"/><text x="42" y="331" font-family="Arial" font-size="18" font-weight="700" fill="#fff">WO-20260317-02</text>
<rect x="28" y="360" width="424" height="52" rx="8" fill="#1d4ed8"/><text x="42" y="393" font-family="Arial" font-size="18" font-weight="700" fill="#fff">WO-20260317-03</text>
<rect x="28" y="422" width="424" height="52" rx="8" fill="#1d4ed8"/><text x="42" y="455" font-family="Arial" font-size="18" font-weight="700" fill="#fff">WO-20260317-04</text>
<rect x="28" y="484" width="424" height="52" rx="8" fill="#1d4ed8"/><text x="42" y="517" font-family="Arial" font-size="18" font-weight="700" fill="#fff">WO-20260317-05</text>

</svg>
